<svg version="1.1" id="Layer_1" xmlns="http://www.w3.org/2000/svg" xmlns:xlink="http://www.w3.org/1999/xlink" x="0px" y="0px"
	 width="100%" viewBox="0 0 1840 417" enable-background="new 0 0 1840 417" xml:space="preserve">
<path fill="#FFFFFF" opacity="1.000000" stroke="none" 
	d="
M1238.000000,418.000000 
	C826.878723,418.000000 416.257477,417.995331 5.636233,418.077332 
	C2.135540,418.078033 0.882880,417.688690 0.886936,413.637085 
	C1.023234,277.485626 1.021380,141.333969 0.888993,5.182487 
	C0.885307,1.391369 1.893456,0.918580 5.316691,0.919052 
	C615.749146,1.003210 1226.181641,1.005037 1836.614136,0.891272 
	C1840.616699,0.890527 1841.083252,2.074485 1841.080811,5.613239 
	C1840.985596,141.598129 1840.979248,277.583160 1841.104736,413.567993 
	C1841.108398,417.471954 1840.058105,418.087891 1836.432983,418.086121 
	C1637.121948,417.989075 1437.811035,418.000000 1238.000000,418.000000 
z"/>
<path fill="#022C7A" opacity="1.000000" stroke="none" 
	d="
M955.807068,185.755539 
	C959.522217,148.308395 971.200989,114.824898 999.179382,88.843826 
	C1017.032410,72.265327 1038.726074,63.333687 1062.507446,59.460789 
	C1090.953003,54.828354 1118.926270,56.601215 1145.837158,67.661324 
	C1182.267090,82.633644 1204.310303,110.489006 1215.850586,147.316010 
	C1224.281006,174.218689 1225.644409,201.860016 1223.372559,229.793671 
	C1221.281982,255.500397 1214.847168,279.936493 1201.216064,302.019257 
	C1181.042236,334.701477 1151.356934,352.892029 1113.541992,358.122162 
	C1086.200562,361.903748 1059.350098,360.026794 1033.589478,349.566895 
	C996.737671,334.603516 974.536804,306.434387 962.991882,269.214294 
	C954.587830,242.120300 953.313965,214.304535 955.807068,185.755539 
z"/>
<path fill="#022C7A" opacity="1.000000" stroke="none" 
	d="
M1522.309326,263.584900 
	C1513.060669,224.734711 1512.752075,186.313431 1524.035522,148.283264 
	C1540.216919,93.745056 1581.486328,61.455879 1638.289429,57.708408 
	C1666.613281,55.839802 1693.763672,59.674606 1718.922607,73.391029 
	C1749.455444,90.037186 1768.233887,116.256737 1777.203125,149.224731 
	C1790.297607,197.355377 1789.745239,245.208649 1768.063721,290.982574 
	C1749.401123,330.383057 1717.127441,352.241730 1674.074707,358.155365 
	C1644.450562,362.224457 1615.535522,359.641418 1588.219116,346.784027 
	C1554.781250,331.045197 1534.851196,303.807831 1523.949097,269.240021 
	C1523.400024,267.499451 1522.948975,265.728027 1522.309326,263.584900 
z"/>
<path fill="#BC1024" opacity="1.000000" stroke="none" 
	d="
M64.056320,362.999573 
	C56.000584,362.999237 56.000530,362.999237 56.000530,355.489105 
	C56.000523,257.527222 56.030212,159.565308 55.903336,61.603607 
	C55.897640,57.205788 56.791351,55.833530 61.475426,55.876816 
	C88.795792,56.129299 116.120171,56.078793 143.441803,55.908382 
	C147.146469,55.885281 148.095871,56.749554 148.091461,60.521030 
	C147.975571,159.815582 147.978699,259.110352 148.082397,358.404907 
	C148.086197,362.034729 147.363495,363.129333 143.515717,363.101013 
	C117.194107,362.907471 90.870399,362.999573 64.056320,362.999573 
z"/>
<path fill="#BC1024" opacity="1.000000" stroke="none" 
	d="
M307.000000,362.999573 
	C285.841827,362.999542 265.182587,362.892426 244.526459,363.097198 
	C240.758072,363.134521 239.908203,362.157135 239.912338,358.447052 
	C240.023102,259.154694 240.022385,159.862167 239.914413,60.569817 
	C239.910416,56.891964 240.710632,55.877213 244.509293,55.902302 
	C272.163361,56.084919 299.819733,56.082523 327.473877,55.904385 
	C331.239960,55.880123 332.091858,56.842838 332.087738,60.552933 
	C331.976990,159.845276 331.977661,259.137817 332.085632,358.430176 
	C332.089630,362.107941 331.308472,363.297943 327.486267,363.096741 
	C320.840912,362.746948 314.163788,362.999573 307.000000,362.999573 
z"/>
<path fill="#BC1024" opacity="1.000000" stroke="none" 
	d="
M424.000427,229.000000 
	C424.000427,172.689621 424.049164,116.879105 423.900482,61.069115 
	C423.889526,56.963528 424.795258,55.857948 429.009949,55.890709 
	C456.497009,56.104362 483.987030,56.083092 511.474548,55.904251 
	C515.242065,55.879738 516.091858,56.845036 516.087708,60.553608 
	C515.977112,159.845978 515.977722,259.138550 516.085754,358.430939 
	C516.089722,362.109985 515.287231,363.122711 511.489990,363.097687 
	C483.835876,362.915253 456.179535,362.917419 428.525360,363.095764 
	C424.757812,363.120056 423.897614,362.156219 423.909851,358.446106 
	C424.051636,315.464447 424.000427,272.482147 424.000427,229.000000 
z"/>
<path fill="#BC1024" opacity="1.000000" stroke="none" 
	d="
M1253.096436,63.000519 
	C1331.549316,63.000523 1409.514893,63.055767 1487.479980,62.870914 
	C1492.451294,62.859131 1493.566040,64.215012 1493.311035,68.899414 
	C1492.894897,76.540031 1492.953735,84.230858 1493.297607,91.878677 
	C1493.480957,95.958817 1492.476318,97.139496 1488.202515,97.110893 
	C1457.217529,96.903450 1426.229126,97.157394 1395.245850,96.848030 
	C1389.923950,96.794884 1389.159058,98.437965 1389.167603,103.209091 
	C1389.313232,185.005997 1389.239990,266.803284 1389.365234,348.600250 
	C1389.371704,352.790985 1388.660767,354.341003 1384.043091,354.127655 
	C1374.733643,353.697510 1365.382690,353.774597 1356.065063,354.103058 
	C1351.966797,354.247498 1350.850708,353.243225 1350.866821,349.003845 
	C1351.040771,303.358032 1350.975220,257.711304 1350.975220,212.064819 
	C1350.975220,175.414352 1350.906128,138.763580 1351.072754,102.113876 
	C1351.091187,98.066772 1350.270752,96.859665 1345.993164,96.887749 
	C1314.508423,97.094543 1283.021362,96.928230 1251.536133,97.093712 
	C1247.790649,97.113396 1246.757324,96.204437 1246.904541,92.453751 
	C1247.217896,84.469582 1247.320801,76.446815 1246.879028,68.474838 
	C1246.617065,63.749760 1248.224854,62.243469 1253.096436,63.000519 
z"/>
<path fill="#BC1125" opacity="1.000000" stroke="none" 
	d="
M738.559631,146.443268 
	C721.513000,118.682716 704.685913,91.213860 687.403870,63.002293 
	C701.526184,63.002293 714.776733,63.039322 728.026733,62.971889 
	C730.764832,62.957954 731.080933,65.262741 732.028198,66.809746 
	C756.442261,106.682175 780.794983,146.592148 805.162903,186.492874 
	C806.455566,188.609451 807.787659,190.701904 809.440063,193.347748 
	C811.253235,190.455276 812.816772,187.994843 814.347351,185.514069 
	C838.723145,146.005692 863.127136,106.514641 887.400085,66.943222 
	C889.173340,64.052452 890.984863,62.836960 894.461670,62.907497 
	C906.219971,63.146049 917.986023,62.998451 930.531799,62.998451 
	C928.721619,66.031174 927.351501,68.427422 925.887207,70.764679 
	C894.260803,121.246696 862.642029,171.733582 830.942688,222.169800 
	C829.097351,225.105911 828.200989,227.969482 828.210266,231.473007 
	C828.313477,270.630798 828.204163,309.789276 828.379211,348.946564 
	C828.397888,353.123260 827.371948,354.253510 823.200378,354.108276 
	C813.547546,353.772278 803.870056,353.823853 794.213013,354.093414 
	C790.612183,354.193909 789.882385,353.074005 789.893616,349.654205 
	C790.019104,311.496338 789.930908,273.337799 790.042664,235.179825 
	C790.052917,231.669327 789.124695,228.810699 787.317261,225.878601 
	C771.077881,199.534393 754.944031,173.125122 738.559631,146.443268 
z"/>
<path fill="#FEFEFF" opacity="1.000000" stroke="none" 
	d="
M1175.877930,151.161102 
	C1183.381592,172.945831 1185.111206,195.068649 1184.291016,217.507828 
	C1183.537842,238.115631 1180.538208,258.299988 1171.261719,276.977631 
	C1155.105103,309.508179 1128.725464,326.139313 1092.349854,327.009155 
	C1057.551392,327.841217 1030.246216,314.538513 1011.825134,284.526031 
	C1003.068787,270.259857 998.559387,254.416382 996.475708,237.980865 
	C993.034729,210.839584 993.378967,183.763733 1001.192688,157.301178 
	C1009.188110,130.223145 1024.152588,108.146072 1051.150879,97.277977 
	C1093.907349,80.066422 1153.613770,88.993286 1175.877930,151.161102 
z"/>
<path fill="#FEFEFF" opacity="1.000000" stroke="none" 
	d="
M1712.400391,304.410950 
	C1691.001343,324.124390 1665.473145,329.598022 1637.970093,326.356934 
	C1598.829956,321.744476 1574.203613,298.701569 1563.059448,261.847046 
	C1551.702148,224.287720 1551.945801,186.206726 1565.128174,149.056610 
	C1575.854126,118.829071 1596.670166,98.550438 1628.964355,92.012199 
	C1683.823242,80.905563 1728.557983,109.596283 1740.678101,164.309586 
	C1748.395630,199.148453 1748.018677,233.983780 1736.062378,268.086731 
	C1731.197388,281.963379 1723.352051,294.016144 1712.400391,304.410950 
z"/>
</svg>